<svg xmlns="http://www.w3.org/2000/svg" viewBox="0 0 566.93 402.39"><g id="Calque_2" data-name="Calque 2"><g id="Calque_1-2" data-name="Calque 1"><path d="M191.28,50.58c9.14,0,11.25,7,11.25,17.57V87.83a7.61,7.61,0,0,0,.07,3.22A7.84,7.84,0,0,0,204,94a8,8,0,0,0,2.46,2.1,7.8,7.8,0,0,0,3.1.89,125.9,125.9,0,0,1,28.1,12h11.23L265.75,92a14.68,14.68,0,0,1,5.14-4.15,14.77,14.77,0,0,1,12.89,0A14.65,14.65,0,0,1,288.94,92l19,19.66a13.26,13.26,0,0,1,4.71,10.2,13.51,13.51,0,0,1-1.22,5.6,13.66,13.66,0,0,1-3.49,4.58c-5.62,5.62-12,11.24-17.57,17.57s-4.21,6.32,0,11.94L301.58,189a9.82,9.82,0,0,0,3.72,5.2,9.68,9.68,0,0,0,6.11,1.82h26.71a13.23,13.23,0,0,1,5.05,1.29,13.06,13.06,0,0,1,4.18,3.11A13.2,13.2,0,0,1,350,204.9a13,13,0,0,1,.75,5.16v30.22a14.26,14.26,0,0,1-1.23,5.9,14.05,14.05,0,0,1-3.6,4.86,14.06,14.06,0,0,1-11.33,3.29H311.41c-5.62,0-8.43,0-9.83,7a89.07,89.07,0,0,1-11.95,28.11V300.7l17.57,16.85a14.74,14.74,0,0,1,0,23.19L289.63,358.3a14,14,0,0,1-22.47,0l-16.87-16.85c-4.91-4.93-6.31-4.22-12.64,0L211,353.39c-5.62,0-7.73,4.22-7.73,10.53v26a11.17,11.17,0,0,1-2.8,8.15,11.07,11.07,0,0,1-7.75,3.78,301.46,301.46,0,0,1-35.82,0,12.64,12.64,0,0,1-11.24-12.64,103.87,103.87,0,0,1,0-14.76V362.51a7.56,7.56,0,0,0,0-3.07,7.84,7.84,0,0,0-1.2-2.82,8,8,0,0,0-2.23-2.14,7.64,7.64,0,0,0-2.88-1.09,92.2,92.2,0,0,1-28.09-11.94,8.19,8.19,0,0,0-2.56-1.8,7.77,7.77,0,0,0-6.13,0,8.08,8.08,0,0,0-2.56,1.8L83.09,358.3a14.74,14.74,0,0,1-23.18,0l-19.67-19a14.75,14.75,0,0,1,0-20.37c5.62-6.32,11.93-11.93,17.57-17.55s4.91-6.33,0-12.66l-12-27.4a9.11,9.11,0,0,0-9.14-7H16.35a14,14,0,0,1-12.23-3.94,13.72,13.72,0,0,1-3.44-5.63,13.91,13.91,0,0,1-.49-6.59V211.46A14.74,14.74,0,0,1,9.92,196.1a14.38,14.38,0,0,1,6.43-.78H39.53a7.61,7.61,0,0,0,3.08,0,7.79,7.79,0,0,0,5-3.43A7.71,7.71,0,0,0,48.67,189a110.89,110.89,0,0,1,9.83-30.92V147.53L41.65,130.67A13.93,13.93,0,0,1,36,119.44a14.24,14.24,0,0,1,1.47-6.3,14,14,0,0,1,4.15-4.94l19-19a14,14,0,0,1,16.31-3.52,14.23,14.23,0,0,1,4.76,3.52l17.56,16.86c4.22,4.92,6.33,4.92,12,0l27.4-11.24a9.86,9.86,0,0,0,7-10.54V63.22c0-10.52,0-14,12.64-17.55ZM100,228.33a70.28,70.28,0,1,0,20.59-49.68A70.27,70.27,0,0,0,100,228.33Z"/><path d="M429.45,0c6.31,0,9.12,0,11.23,8.43l4.22,14a6.32,6.32,0,0,0,6.33,4.22,70.93,70.93,0,0,1,20.37,0s4.91,0,6.31-3.51l7-13.35c0-7,7.73-8.43,14.06-4.92l16.14,7.73a9.07,9.07,0,0,1,3,2.2A8.93,8.93,0,0,1,520,18.06a9.16,9.16,0,0,1-.63,7.22l-7,14.76v7.73L525,62.53h7.72l16.87-5.62c4.91,0,8.43,0,10.53,6.31l6.33,19a9.17,9.17,0,0,1,.44,3.88,8.89,8.89,0,0,1-1.22,3.71,9.08,9.08,0,0,1-6.25,4.36l-14.75,4.92a5.61,5.61,0,0,0-4.22,6.32,62.46,62.46,0,0,1,0,19.68,5.59,5.59,0,0,0,0,7l14.76,7a9,9,0,0,1,3.52,2.31,9.11,9.11,0,0,1,2.11,3.66,9,9,0,0,1,.25,4.21,9.12,9.12,0,0,1-1.67,3.87l-7,14.75a9.81,9.81,0,0,1-2.38,3.76,10,10,0,0,1-3.8,2.33,9.92,9.92,0,0,1-4.43.41,9.81,9.81,0,0,1-4.15-1.57l-13.35-7h-8.43a130.28,130.28,0,0,1-14,13.35,6.3,6.3,0,0,0,0,7.72,160.36,160.36,0,0,1,5.62,16.87,7.69,7.69,0,0,1-.72,5.5,7.61,7.61,0,0,1-4.21,3.62l-21.78,7.73a8.43,8.43,0,0,1-9.83-5.62V198.82s0-4.92-6.33-4.21a70.23,70.23,0,0,1-20.37,0c-3.51,0-4.91,0-6.32,3.52s-4.92,9.12-7,14a10,10,0,0,1-2.33,3.47,9.61,9.61,0,0,1-3.57,2.2,9.84,9.84,0,0,1-8.16-.76l-16.15-8.43a7.64,7.64,0,0,1-3.2-1.79,7.84,7.84,0,0,1-2-3.08,7.68,7.68,0,0,1-.36-3.65,7.52,7.52,0,0,1,1.37-3.42c0-5.62,4.91-9.83,7-14.74a5.69,5.69,0,0,0,1.41-1.92,5.56,5.56,0,0,0,0-4.61,5.69,5.69,0,0,0-1.41-1.92L390.8,158.78a6.3,6.3,0,0,0-7.72,0L369,163.69a9.66,9.66,0,0,1-4.38,1,9.74,9.74,0,0,1-7.85-3.92,9.73,9.73,0,0,1-1.82-4.13c0-5.62,0-11.24-4.91-16.16a9.94,9.94,0,0,1-1.11-4.25,9.82,9.82,0,0,1,.88-4.29,9.53,9.53,0,0,1,2.64-3.51,9.67,9.67,0,0,1,3.9-2l14.76-4.92a4.75,4.75,0,0,0,1.83-.63,5.16,5.16,0,0,0,1.46-1.29,4.89,4.89,0,0,0,.84-1.75,5.35,5.35,0,0,0,.09-2,70.2,70.2,0,0,1,0-21.07V89.22L360.59,81.5a9.15,9.15,0,0,1-3.52-2.31A9.32,9.32,0,0,1,355,75.53a9.1,9.1,0,0,1-.24-4.21,9.3,9.3,0,0,1,1.66-3.89c0-4.9,4.93-9.83,7.74-15.44a9.3,9.3,0,0,1,2.26-3.24,9.08,9.08,0,0,1,3.42-2,9.59,9.59,0,0,1,3.95-.35,9.49,9.49,0,0,1,3.72,1.36l14.05,7h8.42L414,42.15a7.73,7.73,0,0,0,0-8.43l-4.21-12.65a10,10,0,0,1-2.19-3.21,10.05,10.05,0,0,1,0-7.62A10.16,10.16,0,0,1,409.77,7ZM409.07,128.56a47.82,47.82,0,0,0,61.13,30.22,46.37,46.37,0,0,0,30.2-60.43A46.43,46.43,0,0,0,440,67.43a48.49,48.49,0,0,0-30.9,61.13Z"/></g></g></svg>