<svg xmlns="http://www.w3.org/2000/svg" viewBox="0 0 138.53 61.05"><defs><style>.cls-1{fill:#35d6fc;}.cls-2{fill:#00597c;}.cls-3{fill:#fff;}</style></defs><g id="Calque_2" data-name="Calque 2"><g id="Calque_1-2" data-name="Calque 1"><polygon class="cls-1" points="129.97 9.72 123.48 9.72 120.57 4.57 126.9 4.57 129.97 9.72"/><polygon class="cls-2" points="120.36 14.87 123.48 9.72 129.97 9.72 126.95 14.87 120.36 14.87"/><polygon class="cls-2" points="120.57 4.57 123.48 9.72 117.73 9.92 120.57 4.57"/><polygon class="cls-1" points="120.36 14.87 123.48 9.72 117.73 9.92 120.36 14.87"/><polygon class="cls-1" points="100.16 55.9 93.67 55.9 90.76 50.74 97.09 50.74 100.16 55.9"/><polygon class="cls-2" points="90.55 61.05 93.67 55.9 100.16 55.9 97.14 61.05 90.55 61.05"/><polygon class="cls-2" points="90.76 50.74 93.67 55.9 87.92 56.09 90.76 50.74"/><polygon class="cls-1" points="90.55 61.05 93.67 55.9 87.92 56.09 90.55 61.05"/><path class="cls-1" d="M91.35.21,91.47,0H69.07L58.21,18.22H73.06A26,26,0,0,1,91.35.21Z" transform="translate(-1.73)"/><path class="cls-2" d="M82.65,18.27l18.83.65L96,8.52A16.86,16.86,0,0,0,82.65,18.27Z" transform="translate(-1.73)"/><path class="cls-1" d="M82.07,19.72,92.2,36.44l9.28-17.52-18.83-.65A14.13,14.13,0,0,0,82.07,19.72Z" transform="translate(-1.73)"/><path class="cls-2" d="M58.21,18.22,59.9,21.1H72.33a35.28,35.28,0,0,0-.24,4.14,25.82,25.82,0,0,1,1-7Z" transform="translate(-1.73)"/><path class="cls-2" d="M72.09,25.24a35.11,35.11,0,0,0,.24,4.13H64.75l4.15,7.07h5.74A25.78,25.78,0,0,1,72.09,25.24Z" transform="translate(-1.73)"/><path class="cls-3" d="M98,.84a24.4,24.4,0,1,0,24.39,24.4A24.43,24.43,0,0,0,98,.84Zm0,42.53a18.13,18.13,0,1,1,18.13-18.13A18.13,18.13,0,0,1,98,43.37Z" transform="translate(-1.73)"/><polygon class="cls-1" points="138.53 37.06 114.8 37.06 104.14 18.22 127.3 18.22 138.53 37.06"/><polygon class="cls-2" points="103.39 55.9 114.8 37.06 138.53 37.06 127.48 55.9 103.39 55.9"/><polygon class="cls-2" points="104.14 18.22 114.8 37.06 93.79 37.78 104.14 18.22"/><polygon class="cls-1" points="103.39 55.9 114.8 37.06 93.79 37.78 103.39 55.9"/><path class="cls-2" d="M82.1,19.63a16.77,16.77,0,0,0,3.31,16.81H92.2Z" transform="translate(-1.73)"/><path class="cls-3" d="M72.09,25.24a24.87,24.87,0,0,1,.24-3.47H38.19A1.2,1.2,0,0,0,37,23V27.5a1.2,1.2,0,0,0,1.2,1.2H72.33A24.72,24.72,0,0,1,72.09,25.24Z" transform="translate(-1.73)"/><path class="cls-3" d="M5.18,40.93H7.77c.88,0,1.75,0,2.61,0s1.67.08,2.43.15l-.15,2.26H6.1a1.34,1.34,0,0,0-1,.34,1.49,1.49,0,0,0-.33,1.07v9.14A1.51,1.51,0,0,0,5.09,55a1.38,1.38,0,0,0,1,.34h6.56l.15,2.26c-.76.06-1.57.11-2.43.13l-2.61,0H5.18a3.54,3.54,0,0,1-2.49-.86,3,3,0,0,1-1-2.32V44.12a3,3,0,0,1,1-2.32A3.5,3.5,0,0,1,5.18,40.93Zm-3,6.93h9.58V50.1H2.16Z" transform="translate(-1.73)"/><path class="cls-3" d="M22.65,50.58v2H15.34v-2Z" transform="translate(-1.73)"/><path class="cls-3" d="M31,40.67c.83,0,1.7.06,2.62.14a17.05,17.05,0,0,1,2.68.46l-.19,2.07-2.42-.06c-.92,0-1.8,0-2.64,0-.52,0-1,0-1.32,0a2.14,2.14,0,0,0-.89.24,1.15,1.15,0,0,0-.5.6,3.26,3.26,0,0,0-.16,1.11,2.19,2.19,0,0,0,.45,1.55,3.15,3.15,0,0,0,1.47.73l3.31,1a4.9,4.9,0,0,1,2.75,1.76,5.59,5.59,0,0,1,.75,3.08,6.85,6.85,0,0,1-.34,2.36,3,3,0,0,1-1,1.43,4.63,4.63,0,0,1-1.84.73,14.57,14.57,0,0,1-2.75.22c-.55,0-1.31,0-2.27-.1a24.77,24.77,0,0,1-3.3-.48l.2-2.19,2.4.08c.65,0,1.21,0,1.68,0H31a7.92,7.92,0,0,0,1.75-.15,1.26,1.26,0,0,0,.89-.6,2.84,2.84,0,0,0,.26-1.34,2.9,2.9,0,0,0-.19-1.18,1.42,1.42,0,0,0-.59-.67A4.2,4.2,0,0,0,32,51.07l-3.43-1a4.75,4.75,0,0,1-2.66-1.72,5.42,5.42,0,0,1-.76-3.06,6.75,6.75,0,0,1,.34-2.35,2.75,2.75,0,0,1,1-1.39,4.59,4.59,0,0,1,1.81-.65A16.93,16.93,0,0,1,31,40.67Z" transform="translate(-1.73)"/><path class="cls-3" d="M46,40.76a10.09,10.09,0,0,1,3.48.48,3.11,3.11,0,0,1,1.81,1.63,7.9,7.9,0,0,1,.55,3.27,8.24,8.24,0,0,1-.53,3.28A3,3,0,0,1,49.57,51a9,9,0,0,1-3.2.47c-.73,0-1.43,0-2.1-.08s-1.3-.11-1.87-.19-1.07-.17-1.47-.26a4.46,4.46,0,0,1-.85-.23l.07-1.63h5.79a4.93,4.93,0,0,0,1.68-.26A1.52,1.52,0,0,0,48.5,48a6.86,6.86,0,0,0,0-3.67,1.53,1.53,0,0,0-.88-.9,4.51,4.51,0,0,0-1.68-.25c-1.43,0-2.65,0-3.67,0s-1.72,0-2.09.07L39.83,41c.65-.06,1.26-.11,1.84-.14s1.2-.06,1.87-.06ZM42.87,41V57.75h-3V41Z" transform="translate(-1.73)"/><path class="cls-3" d="M59.72,40.67c.82,0,1.69.06,2.61.14a17.05,17.05,0,0,1,2.68.46l-.19,2.07-2.42-.06c-.91,0-1.79,0-2.64,0-.51,0-1,0-1.32,0a2.18,2.18,0,0,0-.89.24,1.2,1.2,0,0,0-.5.6,3.3,3.3,0,0,0-.15,1.11,2.19,2.19,0,0,0,.45,1.55,3.15,3.15,0,0,0,1.47.73l3.3,1a4.86,4.86,0,0,1,2.75,1.76,5.59,5.59,0,0,1,.75,3.08,6.85,6.85,0,0,1-.34,2.36,3,3,0,0,1-1,1.43,4.68,4.68,0,0,1-1.85.73,14.5,14.5,0,0,1-2.75.22c-.55,0-1.31,0-2.27-.1a24.64,24.64,0,0,1-3.29-.48l.19-2.19,2.41.08c.65,0,1.2,0,1.67,0h1.32a8,8,0,0,0,1.75-.15,1.26,1.26,0,0,0,.88-.6,2.84,2.84,0,0,0,.26-1.34,3.11,3.11,0,0,0-.18-1.18,1.39,1.39,0,0,0-.6-.67,4.06,4.06,0,0,0-1.07-.41l-3.42-1a4.74,4.74,0,0,1-2.67-1.72,5.42,5.42,0,0,1-.76-3.06,6.75,6.75,0,0,1,.34-2.35,2.81,2.81,0,0,1,1-1.39,4.65,4.65,0,0,1,1.81-.65A17,17,0,0,1,59.72,40.67Z" transform="translate(-1.73)"/></g></g></svg>